<?xml version="1.0" encoding="utf-8"?>
<!-- Generator: Adobe Illustrator 17.1.0, SVG Export Plug-In . SVG Version: 6.00 Build 0)  -->
<!DOCTYPE svg PUBLIC "-//W3C//DTD SVG 1.1//EN" "http://www.w3.org/Graphics/SVG/1.1/DTD/svg11.dtd">
<svg version="1.1" id="Layer_1" xmlns="http://www.w3.org/2000/svg" xmlns:xlink="http://www.w3.org/1999/xlink" x="0px" y="0px"
	 viewBox="0 0 48.3 49.7" enable-background="new 0 0 48.3 49.7" xml:space="preserve">
<g>
	<path d="M13.1,22.2c-0.5-1.2-0.5-1.2-1.7-1C7.9,21.8,4.5,22.4,1,23c-0.7,0.1-1.1-0.4-1-1.1c0.9-3.7,1.8-7.3,2.7-11
		c0.4-1.8,0.9-3.7,1.3-5.5c0.2-0.7,0.5-1,1.2-1.1c4.5-0.6,8.9-1.2,13.4-1.8c4.5-0.6,9-1.2,13.5-1.8c2.1-0.3,4.2-0.6,6.3-0.8
		c1.1-0.1,1.7,0.6,1.2,1.6c-2,5-4,10-5.9,15c-0.2,0.5-0.5,0.8-1.1,0.9c-2.4,0.4-4.9,0.8-7.3,1.2c-0.1,0-0.2,0.1-0.3,0.1
		c0.1,0.3,0.2,0.5,0.3,0.7c0.1,0.3,0.3,0.4,0.6,0.3c2.2-0.4,4.4-0.8,6.6-1.2c0.8-0.1,1.5,0,2.1,0.5c1,0.8,2.1,1.6,3.2,2.4
		c-0.4,0.4-0.8,0.7-1.2,1c-1-0.8-2.1-1.6-3.1-2.4C33.3,20.1,33,20,32.8,20c-1.7,0.3-3.4,0.7-5.2,1.1c0,0-0.1,0-0.2,0.1
		c0.1,0.1,0.2,0.3,0.4,0.4c1.9,1.9,3.9,3.7,5.8,5.6c0.3,0.3,0.6,0.4,1,0.3c0.3-0.1,0.7-0.2,1-0.2c0.3-0.1,0.5,0.1,0.4,0.4
		c-0.2,0.5-0.3,0.9-1,1.1c-7.8,1.9-15.6,3.9-23.4,5.9c-0.7,0.2-0.8,0.3-0.4,0.9c0.7,1,0.7,1,1.9,0.7c7-1.7,14-3.5,21.1-5.2
		c0.2,0,0.3-0.1,0.6-0.1c-0.4,1.1-0.8,2.1-1.2,3.2c-0.1,0.1-0.3,0.3-0.5,0.3c-5.8,1.6-11.6,3.2-17.5,4.7c-0.5,0.1-0.9,0.2-1.4,0.4
		c-1.5,0.4-2.7,0-3.6-1.3c-2.5-3.4-4.9-6.8-7.4-10.2c-0.5-0.7-1-1.4-1.5-2.1c-0.6-0.8-0.4-1.4,0.6-1.6c3.4-0.6,6.8-1.3,10.2-1.9
		C12.7,22.3,12.9,22.3,13.1,22.2z M1.9,21.8C13.6,15.2,25.1,8.8,36.5,2.3c0,0,0-0.1,0-0.1c-3.2,0.4-6.4,0.9-9.6,1.3
		C27,4,26.7,4.1,26.3,4.2c-1.9,0.2-3.7,0.5-5.5,0.8c-1.2,0.2-2.5,0.3-3.7,0.5C17,5.2,17,5,17,4.8c-3.4,0.5-6.8,0.9-10.2,1.4
		C6.3,6.2,6,6.4,5.9,6.9c-1,3.7-2,7.4-3,11.1C2.6,19.2,2.3,20.4,1.9,21.8z M17.2,31.7c0-0.1,0-0.1,0-0.1c-1.9-2.3-3.8-4.6-5.7-6.9
		c-0.1-0.1-0.3-0.2-0.5-0.1c-1.3,0.2-2.5,0.5-3.7,0.8c-0.9,0.2-1.7,0.4-2.6,0.5c0,0.1,0,0.1,0,0.2c1.7,2.4,3.5,4.8,5.2,7.1
		c0.1,0.1,0.3,0.2,0.5,0.2C12.6,32.8,14.9,32.2,17.2,31.7z M12.3,24.2c2,2.4,4,4.7,5.9,7c0.1,0.1,0.3,0.2,0.4,0.1
		c2.3-0.5,4.5-1.1,6.8-1.7c0-0.1,0-0.1,0-0.1c-2-2.2-4-4.4-6-6.5c-0.1-0.1-0.3-0.1-0.4-0.1C16.7,23.3,14.5,23.8,12.3,24.2z
		 M32.8,27.9c0-0.1,0.1-0.1,0.1-0.2c-0.2-0.1-0.3-0.2-0.5-0.3c-1.8-1.8-3.6-3.5-5.4-5.3c-0.5-0.5-1-0.7-1.7-0.5
		c-1.6,0.4-3.3,0.7-5,1c0.1,0.1,0.1,0.2,0.1,0.2c1.9,2.1,3.9,4.2,5.8,6.3c0.1,0.1,0.4,0.2,0.6,0.1c0.9-0.2,1.7-0.4,2.6-0.6
		C30.6,28.4,31.7,28.2,32.8,27.9z"/>
	<path d="M1.5,27.1c0.3,0.4,0.5,0.7,0.8,1.1c2.6,3.7,5.1,7.5,7.7,11.2c1.1,1.6,2.3,2.1,4.2,1.6c2.6-0.7,5.1-1.4,7.7-2.1
		c3.5-1,6.9-1.9,10.4-2.9c0.2,0,0.3-0.1,0.6-0.1c-0.5,1.4-1,2.8-1.6,4.1c-0.1,0.2-0.3,0.3-0.5,0.4c-5.2,1.5-10.5,2.9-15.7,4.4
		c-0.4,0.1-0.8,0.3-1.2,0.4c-1.4,0.5-2.9-0.1-3.5-1.2C7.5,39.5,4.7,35.2,2,30.8c-0.3-0.5-0.5-1.2-0.6-1.9
		C1.3,28.4,1.4,27.7,1.5,27.1C1.4,27.1,1.5,27.1,1.5,27.1z"/>
	<path d="M29.6,45.9c0.1-0.8,0.1-1.6,0.3-2.3c0.2-0.8,0.7-1.3,1.5-1.5c0.2,0,0.3-0.3,0.4-0.5c1.3-3.5,2.7-7,4-10.5
		c0.5-1.2,0.9-2.5,1.4-3.7c0.1-0.3,0.1-0.5-0.1-0.7c-0.5-0.5-0.6-1.2-0.4-1.9c0.3-1,0.7-1.8,1.8-2.3c0.6-0.3,1.2-0.3,1.8,0
		c1.1,0.6,1.5,1.5,1.5,2.7c0,1.2-0.7,2.1-1.9,2.5c-0.2,0.1-0.3,0.2-0.4,0.4c-1.7,4.9-3.3,9.7-5,14.6c-0.1,0.2,0,0.4,0.1,0.6
		c0.6,0.8,0.7,1.7,0.1,2.5c-0.8,1.1-1.6,2.2-2.5,3.1c-1.1,1.1-2.1,0.7-2.3-0.8C29.6,47.5,29.7,46.6,29.6,45.9z"/>
	<path d="M37.2,38.5c0.5-1.5,1-2.9,1.5-4.2c0-0.1,0.3-0.2,0.5-0.3c2.6-0.7,5.1-1.4,7.7-2.1c0.5-0.1,1-0.4,1.5-0.6c0,1.1,0,2.3,0,3.5
		c0,0.3-0.4,0.7-0.7,0.8C44.2,36.6,40.8,37.5,37.2,38.5z"/>
	<path d="M39.2,32.5c0.4-1,0.7-2,1-2.9c0-0.1,0.1-0.2,0.2-0.2c0.5-0.3,1.4-0.3,1.9,0.1c0.3,0.2,0.6,0.6,0.9,0.5
		c0.6,0,1.1-0.2,1.7-0.4c0.4-0.2,0.3-0.5,0-0.7c-0.7-0.5-1.3-1-2-1.4c-0.3-0.2-0.4-0.4-0.2-0.7c0.2-0.4,0.3-0.8,0.4-1.2
		c0.1,0.1,0.2,0.2,0.4,0.2c1.1,0.9,2.3,1.8,3.4,2.6c0.4,0.3,0.7,0.7,0.6,1.2c-0.1,0.5-0.5,0.8-1,0.9C44,31.2,41.6,31.8,39.2,32.5z"
		/>
</g>
</svg>
