<?xml version="1.0" encoding="utf-8"?>
<!-- Generator: Adobe Illustrator 17.1.0, SVG Export Plug-In . SVG Version: 6.00 Build 0)  -->
<!DOCTYPE svg PUBLIC "-//W3C//DTD SVG 1.1//EN" "http://www.w3.org/Graphics/SVG/1.1/DTD/svg11.dtd">
<svg version="1.1" id="Layer_1" xmlns="http://www.w3.org/2000/svg" xmlns:xlink="http://www.w3.org/1999/xlink" x="0px" y="0px"
	 viewBox="0 0 29.5 49.7" enable-background="new 0 0 29.5 49.7" xml:space="preserve">
<g>
	<path d="M9.5,18.1c-0.3,0.9-0.5,1.6-0.7,2.3c-0.6,1.9-1.5,3.4-3.4,4.2c-1.6,0.7-2.1,2.3-2.6,3.8c-0.3,0.9,0.2,1.8,1,2.3
		c1.9,1.1,1.7,2.9,0.4,4.1c-0.4,0.4-1,0.8-1.5,1.2c-0.6,0.5-1.2,1-1,1.8c0.2,0.9,0.7,1.4,1.5,1.7c0.3,0.1,0.9,0.1,0.6,0.6
		c-0.1,0.2-0.7,0.2-1,0.1c-1.1-0.4-1.9-1.1-2.1-2.3c-0.2-1.2,0.4-2,1.3-2.6c0.6-0.5,1.2-0.9,1.7-1.5c0.9-1,0.4-2-0.9-2.2
		c-1.4-0.2-2.7-1.3-2.9-2.7c-0.3-1.6,0.4-3.2,1.8-3.8c0.8-0.3,0.8-0.8,0.7-1.5c-0.4-2.1-0.4-4.2,0.2-6.3c1.1-4,4-6.3,7.8-7.3
		c3.3-0.9,6.6-0.9,9.8,0.3c5,1.8,7.1,6.1,6.6,11.3c-0.1,0.8-0.2,1.6-0.3,2.4c-0.1,0.5,0,0.8,0.6,1c1.5,0.6,2.3,2,2.2,3.5
		c-0.1,1.5-1.2,2.8-2.8,3.1c-0.5,0.1-0.7,0.4-0.8,0.8c-0.1,0.4-0.2,0.8-0.4,1.1C25,35,25,35,26.2,35.9c0.8,0.5,1.3,1.2,1.2,2.2
		c-0.1,1.1-1.2,2.3-2.3,2.4c-0.3,0-0.6-0.2-0.9-0.4c0.2-0.2,0.4-0.4,0.7-0.5c0.8-0.2,1.4-0.7,1.6-1.5c0.2-0.8-0.4-1.1-0.8-1.5
		c-0.7-0.6-1.3-1.3-1.8-2c-0.7-1.2-0.3-2.3,0.9-3c1.5-0.9,2.1-2.6,1.6-4.5c-0.4-1.7-1.5-2.5-3.4-2.7c-2.3-0.2-4.6-0.4-6.9-0.8
		c-2.8-0.5-4.9-2.2-6.1-4.8C9.8,18.5,9.7,18.4,9.5,18.1z"/>
	<path d="M9.9,20.7c2.1,3.1,5.3,4.1,8.7,4.3c1.5,0.1,3,0.2,4.4,0.4c1.2,0.1,1.9,0.8,2.1,2.1c0.3,1.3-0.1,2.6-0.9,3.1
		c-2.2,1.4-2.6,3.2-0.9,5.3c0.1,0.1,0.2,0.3,0.4,0.5c-2,2.9-4.3,5.4-7.8,6.6c-1,0.4-2,0.1-2.9-0.3c-3.3-1.6-5.6-4.1-7.4-7.3
		c-0.1-0.2,0-0.6,0.1-0.8c1-1.8,0.7-3.3-1.1-4.4C4,29.6,3.8,29,4,28.3C4.2,27,4.9,26,6,25.5c2-0.9,3.1-2.5,3.7-4.4
		C9.8,21,9.8,20.9,9.9,20.7z"/>
	<path d="M6.8,10.4C5.7,7.9,6.9,4,9.5,1.9c3-2.4,7.4-2.5,10.5-0.3c2.8,2.1,4.1,5.9,3,8.7C16.5,7.7,13.4,7.7,6.8,10.4z"/>
	<path d="M15,48.7c0.4-0.8,0.7-1.6,1.2-2.3c1.1-1.7,2.6-2.6,4.6-2.3c1.9,0.2,3.7,0.7,5.5,1.1c0.4,0.1,0.7,0.3,1.1,0.5
		c-5.6,5-17.8,5.6-24.6,0.1c0-0.1,0-0.1,0-0.1c2.3-1.3,4.8-1.8,7.4-1.6c1.8,0.1,3.1,1.3,3.9,2.8C14.5,47.5,14.7,48.1,15,48.7z"/>
</g>
</svg>
