<?xml version="1.0" encoding="utf-8"?>
<!-- Generator: Adobe Illustrator 17.1.0, SVG Export Plug-In . SVG Version: 6.00 Build 0)  -->
<!DOCTYPE svg PUBLIC "-//W3C//DTD SVG 1.1//EN" "http://www.w3.org/Graphics/SVG/1.1/DTD/svg11.dtd">
<svg version="1.1" id="Layer_1" xmlns="http://www.w3.org/2000/svg" xmlns:xlink="http://www.w3.org/1999/xlink" x="0px" y="0px"
	 viewBox="0 0 42.2 49.5" enable-background="new 0 0 42.2 49.5" xml:space="preserve">
<g>
	<path d="M0,38C0.1,26.6,0.2,15.2,0.3,3.7C8.7,6.5,17.1,9.2,25.5,12c0.1,12.5,0.2,24.9,0.3,37.6C17.1,45.7,8.6,41.8,0,38z M5.3,8.1
		c0.6-0.3,0.9-0.7,0.6-1.3C5.6,6.2,4.6,5.8,4,6C3.5,6.2,3.3,6.5,3.5,7c0.2,0.6,0.3,1.1,0.4,1.7c0.3,2.9,0.8,5.8,1.7,8.5
		c1.2,3.8,3.6,6.3,7.5,7.5c3.1,1,5.1,0.1,6.3-2.9c0.1-0.3,0.2-0.6,0.3-0.9c0.7-2.2,0.9-4.5,1-6.7c0-0.4,0-0.8,0.4-1.1
		c0.2-0.1,0.2-0.6,0.1-0.9c-0.3-0.7-1.2-1-1.9-0.8c-0.5,0.2-0.8,0.7-0.5,1.1c0.5,0.6,0.4,1.2,0.3,1.9c-0.1,1.1-0.2,2.2-0.3,3.3
		c-0.2,1.6-0.5,3.2-1.3,4.7c-0.6,1.1-1.5,1.7-2.8,1.5c-2.8-0.6-5.4-1.7-6.9-4.4C6,15.9,5.6,12.1,5.3,8.1z"/>
	<path d="M26.8,49.5c0-1.4,0-2.7,0-3.9c0-7.6-0.1-15.1-0.1-22.7c0-3.4-0.1-6.8-0.1-10.2c0-0.5,0.1-0.8,0.6-1.1
		c0.9-0.5,1.7-1.1,2.6-1.7c1-0.8,2.1-1.2,3.4-1.3c1.7-0.2,3.4-0.5,5.2-0.8c1.3,11.8,2.6,23.6,3.9,35.4c-1.1,0.2-2.2,0.4-3.3,0.6
		c-1.1,0.2-2.1,0.3-3.2,0.5c-0.4,0.1-0.9,0.3-1.3,0.5c-2.3,1.4-4.7,2.8-7,4.3C27.3,49.2,27.2,49.3,26.8,49.5z"/>
	<path d="M11.6,6.6c0-2.2,0-4.4,0-6.6c8.8,2.3,17.5,4.5,26.2,6.7c0,0.1,0,0.1,0,0.2c-1,0.2-2.1,0.3-3.1,0.5
		c-1.1,0.2-2.2,0.3-3.3,0.5c-0.3,0.1-0.6,0.2-0.9,0.4c-1.4,0.9-2.8,1.9-4.1,2.8c-0.2,0.1-0.6,0.3-0.8,0.2
		C20.9,9.7,16.3,8.2,11.6,6.6z"/>
	<path d="M2.4,3.7c1.1-0.2,2.2-0.4,3.4-0.5c0.5-0.1,1-0.2,1.5-0.2c1.4,0,2.3-0.6,2.9-1.8c0.2-0.4,0.5-0.7,0.9-1.1
		c-0.1,2.1-0.1,4.1-0.2,6.3C8,5.5,5.2,4.7,2.4,3.8C2.4,3.8,2.4,3.7,2.4,3.7z"/>
</g>
</svg>
