<?xml version="1.0" encoding="utf-8"?>
<!-- Generator: Adobe Illustrator 17.1.0, SVG Export Plug-In . SVG Version: 6.00 Build 0)  -->
<!DOCTYPE svg PUBLIC "-//W3C//DTD SVG 1.1//EN" "http://www.w3.org/Graphics/SVG/1.1/DTD/svg11.dtd">
<svg version="1.1" id="Layer_1" xmlns="http://www.w3.org/2000/svg" xmlns:xlink="http://www.w3.org/1999/xlink" x="0px" y="0px"
	 viewBox="0 0 50 50" enable-background="new 0 0 50 50" xml:space="preserve">
<g>
	<path d="M33.6,7.8c0.9,0.6,1.7,1.1,2.6,1.7c-6.6,9.9-13.2,19.7-19.9,29.6c-0.9-0.6-1.7-1.1-2.6-1.7C20.3,27.6,27,17.7,33.6,7.8z"/>
	<path d="M20.9,42.4c-0.8-0.7-1.6-1.4-2.4-2c7.6-9.2,15.2-18.3,22.8-27.4c0.8,0.7,1.6,1.3,2.4,2C36.1,24.1,28.5,33.2,20.9,42.4z"/>
	<path d="M12.4,36.6c-0.9-0.6-1.7-1.1-2.6-1.7C16.4,25,23.1,15.1,29.7,5.2c0.8,0.6,1.7,1.1,2.6,1.7C25.7,16.8,19,26.7,12.4,36.6z"/>
	<path d="M13.1,38.4c0.9,0.6,1.7,1.2,2.6,1.7c0,0.1-0.1,0.2-0.1,0.2c-0.8,1.2-1.6,2.5-2.5,3.7c-0.6,0.9-1.7,1-2.5,0.2
		c-0.5-0.5-0.6-1.3-0.1-2c0.7-1.1,1.5-2.2,2.2-3.3C12.8,38.8,12.9,38.6,13.1,38.4z"/>
	<path d="M17.7,41.2c0.8,0.7,1.6,1.3,2.4,2c-0.9,1-1.7,2-2.5,3c-0.2,0.3-0.4,0.5-0.7,0.8c-0.6,0.6-1.5,0.7-2.1,0.1
		c-0.7-0.6-0.8-1.4-0.3-2.1c0.7-0.9,1.5-1.8,2.3-2.8C17.2,41.9,17.4,41.5,17.7,41.2z"/>
	<path d="M9.2,35.8c0.9,0.6,1.7,1.2,2.6,1.7c0,0.1,0,0.1-0.1,0.2c-0.9,1.3-1.7,2.6-2.6,3.9c-0.4,0.6-1.2,0.8-1.9,0.5
		c-0.8-0.4-1.1-1.1-0.9-1.9c0-0.1,0.1-0.2,0.1-0.3C7.3,38.5,8.2,37.2,9.2,35.8z"/>
	<path d="M41.6,12.5c0.8-0.4,1.5-0.8,2.2-1.2c0.1,0,0.2,0,0.3,0c0.8,0.5,0.8,0.5,0.5,1.4c-0.2,0.5-0.3,1.1-0.5,1.6
		c0,0,0,0.1-0.1,0.1c-0.4-0.3-0.8-0.6-1.2-1C42.5,13.2,42.1,12.8,41.6,12.5z"/>
	<path d="M30,4.7c0.7-0.5,1.3-0.9,2-1.3c0.1-0.1,0.2,0,0.3,0c0.2,0.1,0.3,0.2,0.5,0.3c0.3,0.1,0.4,0.3,0.3,0.6
		c-0.2,0.7-0.3,1.4-0.5,2.2C31.7,5.8,30.9,5.3,30,4.7z"/>
	<path d="M33.9,7.3c0.7-0.5,1.4-0.9,2-1.4c0.1,0,0.2,0,0.3,0c0.2,0.1,0.4,0.3,0.6,0.4C37,6.4,37,6.6,37,6.7
		c-0.2,0.8-0.3,1.6-0.5,2.4C35.6,8.5,34.8,7.9,33.9,7.3z"/>
	<path d="M32.7,2.9c0.3-0.2,0.5-0.3,0.8-0.6c-0.1,0.4-0.1,0.7-0.2,1C33.1,3.2,32.9,3,32.7,2.9z"/>
	<path d="M36.6,5.5c0.3-0.2,0.5-0.4,0.8-0.6c-0.1,0.4-0.1,0.6-0.2,1C37,5.8,36.8,5.7,36.6,5.5z"/>
	<path d="M45.4,10.4c-0.1,0.4-0.2,0.7-0.3,1c-0.2-0.2-0.4-0.3-0.6-0.5C44.8,10.8,45,10.6,45.4,10.4z"/>
</g>
</svg>
