<?xml version="1.0" encoding="utf-8"?>
<!-- Generator: Adobe Illustrator 17.1.0, SVG Export Plug-In . SVG Version: 6.00 Build 0)  -->
<!DOCTYPE svg PUBLIC "-//W3C//DTD SVG 1.1//EN" "http://www.w3.org/Graphics/SVG/1.1/DTD/svg11.dtd">
<svg version="1.1" id="logo-group" xmlns="http://www.w3.org/2000/svg" xmlns:xlink="http://www.w3.org/1999/xlink" x="0px" y="0px"
	 viewBox="0 0 100.8 99.3" enable-background="new 0 0 100.8 99.3" xml:space="preserve">
<g id="logo-text">
	<path fill="#010101" d="M5.1,2.4V0.7l14.2,6.2V0h1.5v8.7h-1.4L5.1,2.4z"/>
	<path fill="#010101" d="M20.9,11.8v4.5c0,1.2-0.1,2.3-0.4,3.1c-0.2,0.8-0.6,1.6-1.2,2.2c-0.8,0.9-1.7,1.6-2.8,2.1s-2.3,0.7-3.5,0.7
		c-1.4,0-2.7-0.3-3.8-0.8c-1.1-0.5-2.1-1.3-2.8-2.3c-0.5-0.7-0.8-1.4-1-2.2c-0.2-0.8-0.3-2-0.3-3.6v-3.8H20.9z M19.4,13.3H6.6v3.2
		c0,2,0.6,3.5,1.7,4.6c1.1,1.1,2.7,1.6,4.8,1.6c1,0,2-0.2,2.9-0.6c0.9-0.4,1.6-0.9,2.2-1.6c0.4-0.5,0.8-1.1,1-1.7
		c0.2-0.6,0.3-1.6,0.3-2.8V13.3z"/>
	<path fill="#010101" d="M13.8,28.1v6.6h-1.6v-6.6H6.6v6.6H5.1v-8.2h15.8v8.2h-1.5v-6.6H13.8z"/>
	<path fill="#010101" d="M20.9,35.8v1.5l-13.4,5l13.4,5v1.5L5.1,42.9v-1.2L20.9,35.8z"/>
	<path fill="#010101" d="M16.8,62.5c1-0.7,1.7-1.5,2.2-2.4c0.5-0.9,0.7-1.9,0.7-3c0-1.8-0.6-3.3-1.9-4.5s-2.8-1.9-4.6-1.9
		c-1.9,0-3.5,0.6-4.8,1.9c-1.3,1.2-2,2.7-2,4.5c0,1.1,0.2,2.1,0.7,3c0.5,0.9,1.1,1.6,2,2.3v1.8c-1.3-0.7-2.4-1.7-3.1-2.9
		c-0.7-1.2-1.1-2.6-1.1-4.1c0-2.3,0.8-4.2,2.4-5.8c1.6-1.5,3.6-2.3,5.9-2.3c1.1,0,2.1,0.2,3.1,0.6c1,0.4,1.9,1,2.7,1.8
		c0.8,0.8,1.3,1.6,1.7,2.5c0.4,0.9,0.6,1.9,0.6,3c0,1.6-0.4,3-1.1,4.2c-0.8,1.3-1.8,2.2-3.2,3V62.5z"/>
	<path fill="#010101" d="M5.1,68.2v-1.6h15.8v1.6h-7.1v7.5h7.1v1.5H5.1v-1.5h7.2v-7.5H5.1z"/>
	<path fill="#010101" d="M5.1,79.8v-1.6l15.8,6.1v1.9L5.1,92.2v-1.7l4.9-1.9v-7L5.1,79.8z M11.5,88.1l7.9-3l-7.9-2.9V88.1z"/>
	<path fill="#010101" d="M5.1,96v-1.5h14.2v-3.1h1.5v7.8h-1.5V96H5.1z"/>
</g>
<polygon id="angle" fill="#010101" points="100.8,41.2 100.8,0 32,98.8 59.6,98.8 "/>
<polygon id="line" fill="#010101" points="32,49.4 32,0 67.3,0 "/>
</svg>
